<svg width="40" height="41" viewBox="0 0 40 41" fill="none" xmlns="http://www.w3.org/2000/svg">
<g clip-path="url(#clip0_309_171)">
<path d="M40 8.76087V32.2391C40 34.4044 38.2522 36.1522 36.087 36.1522H3.91305C1.74781 36.1522 0 34.4044 0 32.2391V8.76087C0 8.69134 0 8.62173 0.00867188 8.5522C0.113047 6.5522 1.7043 4.96087 3.7043 4.85657C3.77383 4.8479 3.84344 4.8479 3.91297 4.8479H36.0869C36.1564 4.8479 36.2347 4.8479 36.3043 4.85657C38.2956 4.96095 39.8869 6.5522 39.9912 8.54353C40 8.61306 40 8.69134 40 8.76087Z" fill="white"/>
<path d="M36.3044 4.85633C36.2347 4.84766 36.1566 4.84766 36.087 4.84766H20V36.152H36.087C38.2522 36.152 40 34.4042 40 32.239V8.7607C40 8.69117 40 8.61289 39.9913 8.54328C39.887 6.55203 38.2956 4.9607 36.3044 4.85633Z" fill="white"/>
<path d="M39.9913 8.54348C39.887 6.55215 38.2957 4.9609 36.3044 4.85652C29.9133 11.2475 26.3243 14.8366 20 21.1608C17.6009 18.7603 6.06328 7.21543 3.70438 4.85645C1.70438 4.96082 0.113047 6.55207 0.00875 8.55207C0 8.62168 0 8.69129 0 8.76082V32.2391C0 34.4043 1.74781 36.1521 3.91305 36.1521H5.21742V13.7608L18.1566 26.6913C18.6609 27.2043 19.3305 27.4565 20.0001 27.4565C20.6696 27.4565 21.3392 27.2043 21.8436 26.6913L34.7827 13.7521V36.1521H36.0871C38.2523 36.1521 40.0002 34.4043 40.0002 32.2391V8.76082C40 8.69129 40 8.61301 39.9913 8.54348Z" fill="#303030" fill-opacity="0.57"/>
<path d="M21.8434 26.6913L34.7826 13.7521V36.1521H36.087C38.2522 36.1521 40 34.4043 40 32.2391V8.76082C40 8.69129 40 8.61301 39.9913 8.5434C39.887 6.55207 38.2957 4.96082 36.3044 4.85645C29.9134 11.2475 26.3243 14.8366 20 21.1608V27.4564C20.6695 27.4564 21.3391 27.2043 21.8434 26.6913Z" fill="#303030" fill-opacity="0.57"/>
</g>
<defs>
<clipPath id="clip0_309_171">
<rect width="40" height="40" fill="white" transform="translate(0 0.5)"/>
</clipPath>
</defs>
</svg>
