<svg width="31" height="30" viewBox="0 0 31 30" fill="none" xmlns="http://www.w3.org/2000/svg">
<g clip-path="url(#clip0_304_43)">
<path d="M4.74235 24.1866L5.17286 23.1821L4.55996 22.2772C3.10227 20.1251 2.33331 17.6184 2.33331 15C2.33331 11.5238 3.6828 8.26561 6.14087 5.80759C8.59898 3.34953 11.8571 2 15.3333 2C18.8095 2 22.0677 3.34954 24.5257 5.80756C26.9837 8.26569 28.3333 11.5238 28.3333 15C28.3333 18.4762 26.9837 21.7343 24.5257 24.1924C22.0677 26.6505 18.8095 28 15.3333 28C12.6232 28 10.0463 27.1818 7.84804 25.6292L6.89158 24.9537L5.83438 25.4571L3.77828 26.4362L4.74235 24.1866ZM0.833339 29.5001L0.833321 29.5L0.833289 29.5L0.833339 29.5001Z" stroke="white" stroke-width="4"/>
<path d="M23.325 20.0766L22.8754 17.6414C22.8382 17.4403 22.6823 17.282 22.4818 17.2419L18.9463 16.5348C18.7821 16.5021 18.6128 16.5534 18.4946 16.6716L17.0582 18.108C14.6382 17.0236 13.295 15.6776 12.1131 13.1536L13.5449 11.7218C13.6631 11.6036 13.7144 11.4341 13.6816 11.2701L12.9745 7.73459C12.9344 7.53403 12.7761 7.37811 12.575 7.34096L10.1398 6.89137C10.0731 6.87906 10.0044 6.88041 9.93821 6.89547C9.2952 7.0416 8.7085 7.36557 8.24157 7.83262C7.43291 8.64127 7.12389 9.82117 7.34789 11.2449C7.72395 13.6356 8.8953 16.9627 11.0562 19.1322L11.0856 19.1615C13.2537 21.321 16.5807 22.4924 18.9714 22.8685C19.2725 22.9159 19.5627 22.9394 19.8408 22.9394C20.8775 22.9394 21.7461 22.6124 22.3838 21.9748C22.8507 21.5078 23.1748 20.9211 23.3208 20.2781C23.336 20.212 23.3374 20.1433 23.325 20.0766Z" fill="white"/>
</g>
<defs>
<clipPath id="clip0_304_43">
<rect width="30" height="30" fill="white" transform="translate(0.333313)"/>
</clipPath>
</defs>
</svg>
